<svg version="1.1" xmlns="http://www.w3.org/2000/svg" xmlns:xlink="http://www.w3.org/1999/xlink" x="0px" y="0px" width="239.2px"
	 height="40.4px" viewBox="0 0 239.2 40.4" style="enable-background:new 0 0 239.2 40.4;" xml:space="preserve">
<style type="text/css">
	.st0{fill:#F9F9F9;}
</style>
<defs>
</defs>
<path class="st0" d="M40.4,19.8c0-5.4-3-10-7.4-12.4C30.6,3,26,0,20.6,0c-0.1,0-0.3,0-0.4,0c-0.1,0-0.3,0-0.4,0
	c-5.4,0-10,3-12.4,7.4C3,9.8,0,14.4,0,19.8c0,0.1,0,0.3,0,0.4c0,0.1,0,0.3,0,0.4C0,26,3,30.6,7.4,33c2.4,4.4,7,7.4,12.4,7.4
	c0.1,0,0.3,0,0.4,0c0.1,0,0.3,0,0.4,0c5.4,0,10-3,12.4-7.4c4.4-2.4,7.4-7,7.4-12.4c0-0.1,0-0.3,0-0.4C40.4,20.1,40.4,19.9,40.4,19.8
	z M3.7,20.2c0.5-2.1,1.5-4,2.9-5.5c0.1,2,0.6,3.8,1.4,5.5c-0.8,1.7-1.3,3.6-1.4,5.5C5.2,24.2,4.1,22.3,3.7,20.2z M7.7,32.7
	c-0.2-0.2-0.3-0.4-0.4-0.5c0.2,0.1,0.4,0.2,0.7,0.3c0.1,0.2,0.2,0.4,0.3,0.7C8.1,33,7.9,32.9,7.7,32.7z M7.9,7.9
	C7.7,8,7.5,8.2,7.3,8.3c0.1-0.2,0.3-0.4,0.4-0.5c0.2-0.2,0.4-0.3,0.5-0.4C8.2,7.5,8,7.7,7.9,7.9z M20.2,3.7c2.1,0.5,4,1.5,5.5,2.9
	c-2,0.1-3.8,0.6-5.5,1.4c-1.7-0.8-3.6-1.3-5.5-1.4C16.2,5.2,18.1,4.1,20.2,3.7z M25.6,14.9c1.2,1.4,2.1,3.1,2.6,4.9
	c0-0.8-0.2-1.6-0.3-2.4c0.6,0.9,1,1.8,1.4,2.8c-0.4,1-0.8,1.9-1.4,2.8c0.2-0.8,0.3-1.6,0.3-2.4c-0.5,1.8-1.4,3.5-2.6,4.9
	c-1.4,1.2-3.1,2.1-4.9,2.6c0.8,0,1.6-0.2,2.4-0.3c-0.9,0.6-1.8,1-2.8,1.4c-1-0.4-1.9-0.8-2.8-1.4c0.8,0.2,1.6,0.3,2.4,0.3
	c-1.8-0.5-3.5-1.4-4.9-2.6c-1.2-1.4-2.1-3.1-2.6-4.9c0,0.8,0.2,1.6,0.3,2.4c-0.6-0.9-1-1.8-1.4-2.8c0.4-1,0.8-1.9,1.4-2.8
	c-0.2,0.8-0.3,1.6-0.3,2.4c0.5-1.8,1.4-3.5,2.6-4.9c1.4-1.2,3.1-2.1,4.9-2.6c-0.8,0-1.6,0.2-2.4,0.3c0.9-0.6,1.8-1,2.8-1.4
	c1,0.4,1.9,0.8,2.8,1.4c-0.8-0.2-1.6-0.3-2.4-0.3C22.5,12.8,24.1,13.7,25.6,14.9z M11.3,11.3c1.4-0.6,3-0.9,4.6-0.9
	c0.2,0,0.4,0,0.6,0c-1,1-1.9,2.2-2.6,3.4c-1.3,0.7-2.4,1.6-3.4,2.6c0-0.2,0-0.4,0-0.6C10.5,14.3,10.8,12.8,11.3,11.3z M10.5,24.5
	c0-0.2,0-0.4,0-0.6c1,1,2.2,1.9,3.4,2.6c0.7,1.3,1.6,2.4,2.6,3.4c-0.2,0-0.4,0-0.6,0c-1.6,0-3.2-0.3-4.6-0.9
	C10.8,27.7,10.5,26.1,10.5,24.5z M20.2,36.8c-2.1-0.5-4-1.5-5.5-2.9c2-0.1,3.8-0.6,5.5-1.4c1.7,0.8,3.6,1.3,5.5,1.4
	C24.2,35.3,22.3,36.3,20.2,36.8z M29.1,29.1c-1.4,0.6-3,0.9-4.6,0.9c-0.2,0-0.4,0-0.6,0c1-1,1.9-2.2,2.6-3.4
	c1.3-0.7,2.4-1.6,3.4-2.6c0,0.2,0,0.4,0,0.6C30,26.1,29.7,27.7,29.1,29.1z M30,16.5c-1-1-2.2-1.9-3.4-2.6c-0.7-1.3-1.6-2.4-2.6-3.4
	c0.2,0,0.4,0,0.6,0c1.6,0,3.2,0.3,4.6,0.9c0.6,1.4,0.9,3,0.9,4.6C30,16.2,30,16.3,30,16.5z M32.7,7.7c0.2,0.2,0.3,0.4,0.4,0.5
	c-0.2-0.1-0.4-0.2-0.7-0.3c-0.1-0.2-0.2-0.4-0.3-0.7C32.3,7.4,32.5,7.6,32.7,7.7z M32.7,32.7c-0.2,0.2-0.4,0.3-0.5,0.4
	c0.1-0.2,0.2-0.4,0.3-0.7c0.2-0.1,0.4-0.2,0.7-0.3C33,32.3,32.9,32.5,32.7,32.7z M33.9,25.7c-0.1-2-0.6-3.8-1.4-5.5
	c0.8-1.7,1.3-3.6,1.4-5.5c1.4,1.5,2.4,3.4,2.9,5.5C36.3,22.3,35.3,24.2,33.9,25.7z"/>
<g>
	<path class="st0" d="M55.9,15.2l-0.8-1c2.5-1.8,4.6-3.2,6.2-4.1c1.6-0.9,2.7-1.4,3.2-1.4c0.8,0,1.4,0.5,2,1.4
		c0.5,0.9,0.8,2,0.8,3.1c0,2.5-1.2,5.7-3.5,9.7c0.9-0.3,1.9-0.9,3-1.9c1.1-1,2.3-2.2,3.5-3.8s2.6-3.5,4.1-5.8
		c0.6-0.3,1.5-0.8,2.6-1.5l1.9-1.1c0.3-0.2,0.6-0.3,0.8-0.3c-0.5,1.3-1.3,2.8-2.4,4.5c-1.1,1.7-2.1,3.2-3.1,4.3
		c-1,1.1-2.4,2.3-4.2,3.6c-1.9,1.4-4.2,2.9-7,4.5C67,28,70.5,29.9,73.5,31c-0.1-0.8-0.3-1.9-0.7-3.3c0.7-0.7,1.5-1.3,2.3-1.9
		c0.8-0.6,1.6-1.2,2.4-1.8c0.6,2.1,0.9,3.9,0.9,5.5c-3.5,3.6-6.4,5.4-8.8,5.4c-2.8,0-6-1.8-9.7-5.3c-2.3,2.1-4.2,3.5-6,4.2
		c-1.7,0.7-3.4,1.1-5.1,1.1c-1.6,0-3-0.4-4.2-1.2c-1.2-0.8-1.9-1.4-2.1-2c-0.3-0.6-0.6-1.2-0.9-1.8c-0.6-1.2-1-2-1.1-2.2
		c0.8-0.9,1.8-1.9,3-3.1c1.5,2.4,3.1,4,4.7,4.9c1.7,0.9,3.5,1.3,5.4,1.3c1.3,0,2.6-0.2,3.7-0.7c0.1-0.2,0.5-0.9,1-2.1l-3.9-3.8
		c0.3-0.5,1-1.4,2.1-2.8c1.2,1.1,2.6,1.7,4.2,1.9c0.2-0.8,0.3-1.6,0.5-2.3c0.1-0.7,0.2-1.5,0.3-2.1s0.1-1.3,0.1-2
		c0-1.3-0.2-2.5-0.7-3.8C58.8,13.8,57.2,14.5,55.9,15.2z"/>
	<path class="st0" d="M90.3,15.7L89.5,17c0.7,0.2,1.3,0.7,1.7,1.4c0.5,0.7,0.7,1.6,0.7,2.6c0,1-0.2,1.9-0.6,2.8
		c-0.4,0.9-0.8,1.5-1.3,1.9c-0.5,0.4-1.2,0.9-2.3,1.4c-0.2,0.1-0.5,0.3-0.8,0.5c-0.3,0.2-0.5,0.4-0.7,0.5c-1.8,0-3.5-0.5-5-1.6
		c-1.5-1-2.3-2.3-2.3-3.8c0-2.5,1.7-4.9,5.2-7.2c1.6,0.1,2.9,0.2,4,0.2C88.9,15.7,89.7,15.7,90.3,15.7z M84.2,18
		c-0.5,0.8-0.8,1.7-0.8,2.6c0,2.5,1.3,3.9,3.8,4.5c0.2-0.9,0.4-1.9,0.4-2.8c0-1.5-0.3-2.5-1-3.1C85.9,18.5,85.1,18.1,84.2,18z"/>
	<path class="st0" d="M94.8,15.2l0-1.2c0.1,0,0.6-0.1,1.3-0.1c1.3-0.1,2.3-0.3,3-0.4c0,0.2,0,0.3,0,0.5c0,0.3,0,0.8-0.1,1.5
		c0.3,0,0.9,0,1.8,0c0.6,0,1,0,1.2,0c-0.3,1.5-0.4,2.4-0.5,2.7c-0.6,0.1-1.5,0.2-2.6,0.2c-0.1,1.4-0.1,2.4-0.1,2.9
		c0,0.8,0.2,1.5,0.6,2c0.4,0.5,1,0.9,2,1.1l-2.5,3.7c-3.1-0.9-4.6-2.5-4.6-4.8c0-0.4,0.1-1.1,0.2-2.2c0.1-1.1,0.2-1.9,0.2-2.3
		c-0.4,0-0.9,0.1-1.4,0.2l1.5-2.6v-0.3L94.8,15.2z"/>
	<path class="st0" d="M103.5,10.4l4.8-1.5l-0.1,5.4v3.5l2.3-2.4h0.2c1.9,0.6,3.2,1.2,3.8,1.9c0.6,0.7,0.9,1.8,0.9,3.5
		c0,0.6-0.1,1.6-0.3,3c-0.1,0.8-0.2,1.8-0.3,3.2c-1.4,1.1-2.9,2.2-4.6,3.3c0.4-3.4,0.7-5.5,0.7-6.5l-0.5-3.4c0-0.2-0.3-1-0.8-2.5
		c-0.7,0.9-1.1,1.4-1.4,1.7v3.6c0,0,0,0.4,0,1c0,0.6,0,1,0,1.4c0,0.3,0,0.9,0.1,1.7c-1,0-2.7,0.2-5.1,0.6c0.1-1.2,0.2-2.7,0.3-4.6
		C103.4,21.4,103.5,17.1,103.5,10.4z"/>
	<path class="st0" d="M128.5,15.7l-0.8,1.3c0.7,0.2,1.3,0.7,1.7,1.4c0.5,0.7,0.7,1.6,0.7,2.6c0,1-0.2,1.9-0.6,2.8
		c-0.4,0.9-0.8,1.5-1.3,1.9c-0.5,0.4-1.2,0.9-2.3,1.4c-0.2,0.1-0.5,0.3-0.8,0.5c-0.3,0.2-0.5,0.4-0.7,0.5c-1.8,0-3.5-0.5-5-1.6
		c-1.5-1-2.3-2.3-2.3-3.8c0-2.5,1.7-4.9,5.2-7.2c1.6,0.1,2.9,0.2,4,0.2C127.1,15.7,127.8,15.7,128.5,15.7z M122.4,18
		c-0.5,0.8-0.8,1.7-0.8,2.6c0,2.5,1.3,3.9,3.8,4.5c0.2-0.9,0.4-1.9,0.4-2.8c0-1.5-0.3-2.5-1-3.1C124,18.5,123.3,18.1,122.4,18z"/>
	<path class="st0" d="M131,16.4c1.4-0.2,2.5-0.4,3.2-0.5s1.3-0.3,1.9-0.4c0.2,1,0.3,1.8,0.3,2.5c0.8-0.5,1.5-0.9,2-1.4
		c0.6-0.4,1-0.9,1.4-1.3c1.3,0.4,2.3,0.9,3.1,1.5c0.8,0.7,1.2,1.8,1.2,3.4c0,2.8-1.3,5.3-4,7.5l-1.9-0.8l-1.1-0.4
		c-0.9,3.6-1.4,6.4-1.8,8.5l-3.9-0.4c0-0.4,0.1-1.4,0.3-2.9c0.1-1.5,0.2-2.8,0.3-3.9c0-1.1,0.1-2.1,0.1-2.8
		C132,20.9,131.7,18,131,16.4z M136.4,20c0.1,0.6,0.1,1.1,0.1,1.6l0,1.8c0.7,0.3,1.6,0.5,2.6,0.8c0.1-0.5,0.1-1,0.1-1.5
		c0-2.2-0.4-3.7-1.1-4.4C137.6,18.9,137,19.5,136.4,20z"/>
	<path class="st0" d="M157,15.7l-0.8,1.3c0.7,0.2,1.3,0.7,1.7,1.4c0.5,0.7,0.7,1.6,0.7,2.6c0,1-0.2,1.9-0.6,2.8
		c-0.4,0.9-0.8,1.5-1.3,1.9c-0.5,0.4-1.2,0.9-2.3,1.4c-0.2,0.1-0.5,0.3-0.8,0.5c-0.3,0.2-0.5,0.4-0.7,0.5c-1.8,0-3.5-0.5-5-1.6
		c-1.5-1-2.3-2.3-2.3-3.8c0-2.5,1.7-4.9,5.2-7.2c1.6,0.1,2.9,0.2,4,0.2C155.6,15.7,156.3,15.7,157,15.7z M150.9,18
		c-0.5,0.8-0.8,1.7-0.8,2.6c0,2.5,1.3,3.9,3.8,4.5c0.2-0.9,0.4-1.9,0.4-2.8c0-1.5-0.3-2.5-1-3.1C152.5,18.5,151.7,18.1,150.9,18z"/>
	<path class="st0" d="M161,10.2c2.3-0.7,4.1-1.1,5.5-1.2c-0.9,2.1-1.3,5.9-1.3,11.5v3.4c1.4-2.6,2-4.8,2-6.5c0-0.4,0-0.8-0.1-1.1
		l4.3-0.8c-0.1,0.8-0.1,1.4-0.3,1.9c-0.1,0.5-0.3,0.9-0.4,1.1c-0.1,0.2-0.5,0.7-1.1,1.4c-0.3,0.4-0.6,0.9-1,1.5c0.1,0,0.2,0,0.4,0
		c0.9,0,1.7,0.3,2.3,0.8c0.7,0.5,1.4,1.5,2.1,2.7c-0.6,0.8-1.2,1.5-1.7,2.1c-0.5,0.6-1,1.1-1.5,1.6c-0.6-1.5-2-2.9-4.1-4
		c-0.9,1.6-1.3,2.6-1.4,3l-4.4,1l0-2.3l0-4.1c0-2.8,0-5.2,0.1-7.2C160.7,12.7,160.8,11.2,161,10.2z"/>
	<path class="st0" d="M185.7,15.7l-0.8,1.3c0.7,0.2,1.3,0.7,1.7,1.4c0.5,0.7,0.7,1.6,0.7,2.6c0,1-0.2,1.9-0.6,2.8
		c-0.4,0.9-0.8,1.5-1.3,1.9c-0.5,0.4-1.2,0.9-2.3,1.4c-0.2,0.1-0.5,0.3-0.8,0.5c-0.3,0.2-0.5,0.4-0.7,0.5c-1.8,0-3.5-0.5-5-1.6
		c-1.5-1-2.3-2.3-2.3-3.8c0-2.5,1.7-4.9,5.2-7.2c1.6,0.1,2.9,0.2,4,0.2C184.3,15.7,185,15.7,185.7,15.7z M179.6,18
		c-0.5,0.8-0.8,1.7-0.8,2.6c0,2.5,1.3,3.9,3.8,4.5c0.2-0.9,0.4-1.9,0.4-2.8c0-1.5-0.3-2.5-1-3.1C181.2,18.5,180.4,18.1,179.6,18z"/>
	<path class="st0" d="M190.1,15.2l0-1.2c0.1,0,0.6-0.1,1.3-0.1c1.3-0.1,2.3-0.3,3-0.4c0,0.2,0,0.3,0,0.5c0,0.3,0,0.8-0.1,1.5
		c0.3,0,0.9,0,1.8,0c0.6,0,1,0,1.2,0c-0.3,1.5-0.4,2.4-0.5,2.7c-0.6,0.1-1.5,0.2-2.6,0.2c-0.1,1.4-0.1,2.4-0.1,2.9
		c0,0.8,0.2,1.5,0.6,2c0.4,0.5,1,0.9,2,1.1l-2.5,3.7c-3.1-0.9-4.6-2.5-4.6-4.8c0-0.4,0.1-1.1,0.2-2.2c0.1-1.1,0.2-1.9,0.2-2.3
		c-0.4,0-0.9,0.1-1.4,0.2l1.5-2.6v-0.3L190.1,15.2z"/>
	<path class="st0" d="M198.9,10.4l4.8-1.5l-0.1,5.4v3.5l2.3-2.4h0.2c1.9,0.6,3.2,1.2,3.8,1.9c0.6,0.7,0.9,1.8,0.9,3.5
		c0,0.6-0.1,1.6-0.3,3c-0.1,0.8-0.2,1.8-0.3,3.2c-1.4,1.1-2.9,2.2-4.6,3.3c0.4-3.4,0.7-5.5,0.7-6.5l-0.5-3.4c0-0.2-0.3-1-0.8-2.5
		c-0.7,0.9-1.1,1.4-1.4,1.7v3.6c0,0,0,0.4,0,1c0,0.6,0,1,0,1.4c0,0.3,0,0.9,0.1,1.7c-1,0-2.7,0.2-5.1,0.6c0.1-1.2,0.2-2.7,0.3-4.6
		C198.8,21.4,198.8,17.1,198.9,10.4z"/>
	<path class="st0" d="M223.8,15.7l-0.8,1.3c0.7,0.2,1.3,0.7,1.7,1.4c0.5,0.7,0.7,1.6,0.7,2.6c0,1-0.2,1.9-0.6,2.8
		c-0.4,0.9-0.8,1.5-1.3,1.9c-0.5,0.4-1.2,0.9-2.3,1.4c-0.2,0.1-0.5,0.3-0.8,0.5c-0.3,0.2-0.5,0.4-0.7,0.5c-1.8,0-3.5-0.5-5-1.6
		c-1.5-1-2.3-2.3-2.3-3.8c0-2.5,1.7-4.9,5.2-7.2c1.6,0.1,2.9,0.2,4,0.2C222.4,15.7,223.2,15.7,223.8,15.7z M217.7,18
		c-0.5,0.8-0.8,1.7-0.8,2.6c0,2.5,1.3,3.9,3.8,4.5c0.2-0.9,0.4-1.9,0.4-2.8c0-1.5-0.3-2.5-1-3.1C219.4,18.5,218.6,18.1,217.7,18z"/>
	<path class="st0" d="M230.7,15.7l1.4-0.4v1.9c0.3-0.2,0.7-0.4,1.4-0.8c0.2-0.1,0.4-0.3,0.7-0.4l1.2-0.7c0.9,0.1,1.6,0.3,2,0.5
		c0.4,0.2,0.8,0.4,1.1,0.8c0.3,0.4,0.5,0.7,0.6,1.1c0.1,0.3,0.1,0.9,0.1,1.6c0,0.9-0.1,1.9-0.3,3.2c-0.2,1.3-0.3,2.4-0.3,3.3
		l-2.6,1.7l-0.4,0.3c-0.8,0.5-1.4,0.9-1.9,1.1c0.5-2.6,0.8-4.7,0.8-6.2c0-1.8-0.4-3.4-1.2-4.7c0,0-0.2,0.2-0.5,0.5l-0.3,0.3
		l-0.6,0.6l0.1,8.2c-1.5,0-3.1,0.3-4.8,0.7c0-0.5,0-0.8,0-1c0-0.6,0-0.9,0-1.1v-0.3c0-0.4,0-0.7,0-0.8v-3.4c0-1.7,0-3.2-0.1-4.6
		c0.1,0,0.3-0.1,0.4-0.1c0.2-0.1,0.3-0.1,0.5-0.2c0.2-0.1,0.4-0.1,0.6-0.2L230.7,15.7z"/>
</g>
</svg>
